<svg width="100" height="57" viewBox="0 0 100 57" fill="none" xmlns="http://www.w3.org/2000/svg">
<path d="M29.2891 41.8901H24.8945V54.5659H23.1367V41.8901H18.7422V40.3472H29.2891V41.8901ZM38.498 50.8843H33.752L32.6094 54.5659H30.8027L35.3926 40.3472H36.9062L41.418 54.5659H39.6211L38.498 50.8843ZM34.2402 49.312H38.0195L36.1445 43.1401L34.2402 49.312Z" fill="black"/>
<path d="M53.1855 54.5659L48.6934 40.3472H50.627L53.752 50.9624L53.957 51.6558L54.1719 50.9429L57.3164 40.3472H59.2402L54.7578 54.5659H53.1855ZM70.6367 40.3472L70.6562 49.9761C70.6562 50.6401 70.5391 51.2619 70.3047 51.8413C70.0703 52.4207 69.748 52.9253 69.3379 53.355C68.9277 53.7912 68.4395 54.1362 67.873 54.3901C67.3066 54.6375 66.6849 54.7612 66.0078 54.7612C65.3177 54.7612 64.6895 54.6375 64.123 54.3901C63.5566 54.1427 63.0716 53.8009 62.668 53.3647C62.2643 52.9351 61.9486 52.4305 61.7207 51.8511C61.4928 51.2651 61.3757 50.6401 61.3691 49.9761L61.3887 40.3472H63.1074L63.1465 49.9761C63.153 50.3993 63.2181 50.8062 63.3418 51.1968C63.472 51.5874 63.6576 51.9325 63.8984 52.2319C64.1328 52.5314 64.4258 52.7723 64.7773 52.9546C65.1354 53.1369 65.5456 53.228 66.0078 53.228C66.4701 53.228 66.877 53.1401 67.2285 52.9644C67.5801 52.7821 67.8763 52.5379 68.1172 52.2319C68.3516 51.9325 68.5306 51.5874 68.6543 51.1968C68.778 50.8062 68.8464 50.3993 68.8594 49.9761L68.8887 40.3472H70.6367ZM81.5449 47.9937H75.6074V53.0327H82.5312V54.5659H73.8008V40.3472H82.4434V41.8901H75.6074V46.4604H81.5449V47.9937Z" fill="black"/>
<path d="M0 18.4166H13.8994C13.7229 23.5554 16.3881 33.779 28.4607 33.5627C40.5333 33.3463 43.4632 23.3751 43.4191 18.4166C43.5073 13.1876 40.6411 3.00001 28.4607 3C22.9009 3 18.4002 7.32746 18.4002 7.32746" stroke="black" stroke-width="4.9"/>
<path d="M100 18.4166H86.1006C86.2771 23.5554 83.6119 33.779 71.5393 33.5627C59.4667 33.3463 56.5368 23.3751 56.5809 18.4166C56.4927 13.1876 59.3589 3.00001 71.5393 3C77.0991 3 81.5998 7.32746 81.5998 7.32746" stroke="black" stroke-width="4.9"/>
<line x1="43.4211" y1="18.0765" x2="58.4211" y2="18.0765" stroke="black" stroke-width="3.86842"/>
</svg>
